<?xml version="1.0" standalone="no"?><!DOCTYPE svg PUBLIC "-//W3C//DTD SVG 1.1//EN" "http://www.w3.org/Graphics/SVG/1.1/DTD/svg11.dtd"><svg t="1732176293269" class="icon" viewBox="0 0 1024 1024" version="1.1" xmlns="http://www.w3.org/2000/svg" p-id="11932" xmlns:xlink="http://www.w3.org/1999/xlink" width="200" height="200"><path d="M605.04 706.62l32.35-321.08 152.56-0.16 67.09 100.58 67.43 67.41-0.31 153.25z" fill="#E6E9ED" p-id="11933"></path><path d="M849.46 474.59l-59.51-89.21-152.56 0.16-8.97 89.05z" fill="#4FC2E9" p-id="11934"></path><path d="M870.9 474.59l-71.41-107.07-178.24 0.18-35.93 356.77h356.64l0.37-178.47-71.43-71.41z m35.43 214.19H624.78l28.76-285.42 126.86-0.13 60.82 91.17 1.96 2.93 2.48 2.51 60.95 60.9-0.28 128.04z" fill="#E6E9ED" p-id="11935"></path><path d="M621.02 224.72H121.28c-19.71 0-35.72 15.99-35.72 35.7v428.36c0 19.72 15.98 35.69 35.69 35.69h499.77c19.72 0 35.69-15.98 35.69-35.69V260.42c0-19.71-15.98-35.7-35.69-35.7z" fill="#CCD1D9" p-id="11936"></path><path d="M781.66 707.38m-89.24 0a89.24 89.24 0 1 0 178.48 0 89.24 89.24 0 1 0-178.48 0Z" fill="#434A54" p-id="11937"></path><path d="M246.23 707.38m-89.24 0a89.24 89.24 0 1 0 178.48 0 89.24 89.24 0 1 0-178.48 0Z" fill="#434A54" p-id="11938"></path><path d="M763.83 707.38c0 9.86 7.98 17.83 17.83 17.83 9.86 0 17.86-7.98 17.86-17.83 0-9.86-8-17.86-17.86-17.86-9.85 0-17.83 8-17.83 17.86zM228.37 707.38c0 9.86 8 17.83 17.86 17.83s17.83-7.98 17.83-17.83c0-9.86-7.98-17.86-17.83-17.86-9.86 0-17.86 8-17.86 17.86z" fill="#F5F7FA" p-id="11939"></path><path d="M156.99 546c-9.89 0-17.86 7.98-17.86 17.83v35.71c0 9.86 7.97 17.83 17.86 17.83 9.86 0 17.83-7.98 17.83-17.83v-35.71c0-9.86-7.97-17.83-17.83-17.83zM228.37 546c-9.86 0-17.86 7.98-17.86 17.83v35.71c0 9.86 8 17.83 17.86 17.83s17.86-7.98 17.86-17.83v-35.71c0-9.86-8-17.83-17.86-17.83zM299.75 546c-9.83 0-17.83 7.98-17.83 17.83v35.71c0 9.86 8 17.83 17.83 17.83 9.88 0 17.86-7.98 17.86-17.83v-35.71c0-9.86-7.98-17.83-17.86-17.83zM371.16 546c-9.86 0-17.86 7.98-17.86 17.83v35.71c0 9.86 8 17.83 17.86 17.83s17.86-7.98 17.86-17.83v-35.71c0-9.86-8-17.83-17.86-17.83zM442.57 546c-9.89 0-17.86 7.98-17.86 17.83v35.71c0 9.86 7.97 17.83 17.86 17.83 9.86 0 17.83-7.98 17.83-17.83v-35.71c0-9.86-7.98-17.83-17.83-17.83zM513.95 546c-9.86 0-17.86 7.98-17.86 17.83v35.71c0 9.86 8 17.83 17.86 17.83s17.86-7.98 17.86-17.83v-35.71c-0.01-9.86-8.01-17.83-17.86-17.83zM585.33 546c-9.83 0-17.83 7.98-17.83 17.83v35.71c0 9.86 8 17.83 17.83 17.83 9.88 0 17.86-7.98 17.86-17.83v-35.71c-0.01-9.86-7.98-17.83-17.86-17.83z" fill="#656D78" p-id="11940"></path><path d="M692.19 403.21h35.69v71.38h-35.69z" fill="#3BAFDA" p-id="11941"></path><path d="M621.02 224.72H121.28c-19.71 0-35.72 15.99-35.72 35.7v321.26h571.15V260.42c0-19.71-15.98-35.7-35.69-35.7z" fill="#5D9CEC" p-id="11942"></path></svg>